<?xml version="1.0" encoding="utf-8"?>
<!-- Generator: Adobe Illustrator 26.2.1, SVG Export Plug-In . SVG Version: 6.00 Build 0)  -->
<svg version="1.1" id="Ebene_1" xmlns="http://www.w3.org/2000/svg" xmlns:xlink="http://www.w3.org/1999/xlink" x="0px" y="0px"
	 viewBox="0 0 1519.4 853.89" style="enable-background:new 0 0 1519.4 853.89;" xml:space="preserve">
<style type="text/css">
	.st0{fill:#FFFFFF;}
</style>
<g>
	<path class="st0" d="M713.35,0c254.99,181.86,509.83,363.6,764.67,545.35c-0.1,0.31-0.19,0.62-0.29,0.94c-1.58,0-3.17,0-4.75,0
		c-55.49,0-110.99,0.11-166.48-0.17c-5.59-0.03-11.69-1.4-16.66-3.92C1090.45,441.5,891.15,340.6,691.89,239.64
		c-3.15-1.6-5.48-1.62-8.64,0.01c-48.08,24.8-96.23,49.46-144.36,74.14c-1.74,0.89-3.51,1.71-5.8,1.71
		c67.64-50.57,135.28-101.13,202.92-151.7c-0.27-0.46-0.53-0.92-0.8-1.39c-1.32,0.62-2.7,1.14-3.95,1.87
		c-188.87,111.73-377.68,223.56-566.73,335c-10.68,6.29-23.28,9.32-34.99,13.87c-0.32-0.58-0.65-1.16-0.97-1.74
		C323.43,341.01,518.28,170.6,713.35,0z"/>
	<path class="st0" d="M1153.72,546.15c-227.94,0-455.87,0-683.81,0c-0.06-0.25-0.12-0.49-0.18-0.74
		c102.48-25.43,204.96-50.87,307.44-76.3c-0.11-0.66-0.23-1.32-0.34-1.98c-225.22,25.79-450.44,51.58-675.66,77.37
		c-0.08-0.33-0.15-0.65-0.23-0.98c6.07-2.05,12.14-4.12,18.23-6.13c183.43-60.54,366.87-121.06,550.27-181.71
		c4.75-1.57,8.73-1.4,13.35,0.46c155.48,62.5,311.01,124.87,466.53,187.27c1.52,0.61,3.01,1.3,4.51,1.96
		C1153.79,545.63,1153.76,545.89,1153.72,546.15z"/>
	<path class="st0" d="M199.03,490.5c11.67-6.02,23.34-12.05,35.03-18.05c149.3-76.59,298.62-153.15,447.87-229.85
		c4.18-2.15,7.25-2.06,11.4,0.04c197.18,99.94,394.42,199.76,591.66,299.6c2.01,1.02,4.01,2.07,5.8,4.03c-1.57,0-3.14,0-4.71,0
		c-39.83,0-79.66,0.03-119.49-0.07c-2.9-0.01-5.98-0.57-8.67-1.65c-137.79-55.2-275.56-110.46-413.27-165.87
		c-2.98-1.2-5.92-3.68-7.76-6.35c-7.09-10.27-13.73-20.85-20.91-31.89c23.36-7.74,46.38-15.37,69.4-23
		c-0.13-0.56-0.27-1.13-0.4-1.69c-1.55,0.37-3.11,0.67-4.63,1.13c-20.73,6.19-41.48,12.29-62.14,18.69
		c-3.54,1.1-5.33,0.46-7.25-2.62c-6.35-10.16-12.98-20.13-19.71-30.49c-1.94,0.69-3.8,1.26-5.59,1.98
		c-129.19,52.06-258.25,104.45-387.68,155.92c-25.42,10.11-52.26,16.66-78.46,24.81c-6.65,2.07-13.35,3.99-20.03,5.97
		C199.33,490.95,199.18,490.72,199.03,490.5z"/>
	<path class="st0" d="M457.38,577.07c15.77,1.2,31.54,2.37,47.3,3.59c27.9,2.16,55.8,4.38,83.7,6.54
		c19.27,1.49,38.52,3.42,57.81,4.19c11.59,0.46,23.27-0.75,34.89-1.49c33.92-2.16,67.83-4.45,101.74-6.71
		c27.76-1.85,55.52-3.76,83.28-5.57c3.75-0.24,7.52-0.03,12.21-0.03c-7.74,6.44-14.94,12.46-22.16,18.45
		c-73.61,61.06-147.22,122.11-220.79,183.23c-2.4,2-4.19,2.72-7.41,1.33c-174.1-75.41-348.24-150.71-522.39-226.02
		c-1.2-0.52-2.38-1.06-3.33-2.37c186.29,44.32,372.57,88.64,558.86,132.95c0.11-0.28,0.22-0.56,0.32-0.84
		c-68.16-35.38-136.32-70.76-204.48-106.14C457.08,577.81,457.23,577.44,457.38,577.07z"/>
	<path class="st0" d="M1252.65,553.12c-16.15,4.99-32.3,10.01-48.46,14.97c-149.33,45.85-298.68,91.62-447.94,137.7
		c-9.16,2.83-16.5-1.76-25.89-2.63c8.78-7.33,16.76-14.02,24.77-20.68c41.02-34.04,82.07-68.06,123.04-102.16
		c3.21-2.67,6.45-3.99,10.73-4.26c42.89-2.68,85.76-5.64,128.64-8.47c32.74-2.17,65.49-4.24,98.23-6.41
		c37.89-2.5,75.78-5.05,113.68-7.57c7.63-0.51,15.27-0.96,22.91-1.44C1252.46,552.5,1252.55,552.81,1252.65,553.12z"/>
	<path class="st0" d="M826.62,686.32c-36.28,56.49-71.79,111.8-107.6,167.57c-190-92.37-379.7-184.6-569.41-276.83
		c0.12-0.29,0.24-0.59,0.37-0.88c2.69,1.11,5.39,2.19,8.06,3.35c156.57,67.7,313.13,135.4,469.65,203.2
		c3.42,1.48,5.52,1.09,8.34-1.27c29.65-24.8,59.39-49.49,89.27-74.01c1.82-1.49,5.44-2.45,7.52-1.7c11.72,4.21,22.74,3,34.37-1.12
		c17.7-6.27,35.88-11.2,53.86-16.7C822.46,687.5,823.87,687.11,826.62,686.32z"/>
	<path class="st0" d="M520.63,69.99c0.12,2.46,0.21,3.56,0.23,4.66c0.48,28.49,0.88,56.98,1.53,85.46c0.08,3.53-1.45,5.47-3.8,7.52
		c-59.6,52.07-119.15,104.18-178.72,156.28C269,385.89,198.15,447.87,127.26,509.79c-2.76,2.41-5.94,4.32-8.93,6.47
		c-0.45-0.52-0.89-1.05-1.34-1.57C251.21,366.81,385.43,218.94,520.63,69.99z"/>
	<path class="st0" d="M1308.87,579.11c-174.75,59.37-349.49,118.73-525.14,178.41c1.1-1.99,1.7-3.23,2.44-4.38
		c13.75-21.44,27.45-42.91,41.39-64.23c1.39-2.12,3.97-4.07,6.4-4.82c73.41-22.71,146.79-45.53,220.4-67.58
		c13.58-4.07,28.11-5.09,42.24-7.19c42.3-6.3,84.63-12.45,126.95-18.64c28.31-4.15,56.61-8.27,84.92-12.41
		C1308.61,578.54,1308.74,578.83,1308.87,579.11z"/>
	<path class="st0" d="M98.66,548.43c4.83,0,9.65-0.03,14.48,0c93.48,0.68,186.95,1.35,280.43,2.15c3.34,0.03,7.01,0.82,9.96,2.34
		c78.81,40.73,157.55,81.61,236.3,122.47c1.9,0.98,3.74,2.06,5.33,3.86c-182.14-43.33-364.28-86.67-546.42-130
		C98.71,548.98,98.68,548.7,98.66,548.43z"/>
	<path class="st0" d="M406.35,550.64c0.94,0,1.87-0.01,2.81,0c157.81,2.32,315.61-0.27,473.42-1.24
		c126.15-0.77,252.3-0.78,378.45-1.12c2.98-0.01,5.97,0,8.96,0.64c-16.73,1.12-33.46,2.24-50.19,3.35
		c-38.73,2.57-77.46,5.15-116.19,7.69c-32.75,2.15-65.5,4.24-98.25,6.4c-37.9,2.5-75.8,5.07-113.69,7.58
		c-32.41,2.15-64.83,4.24-97.25,6.38c-38.23,2.52-76.49,4.67-114.68,7.76c-22.88,1.85-45.56,0.8-68.32-1.11
		c-28.38-2.38-56.79-4.44-85.19-6.66c-24.74-1.93-49.49-3.88-74.23-5.86c-1.3-0.1-2.71-0.28-3.84-0.86
		c-14.04-7.2-28.03-14.49-42.04-21.76C406.2,551.43,406.27,551.03,406.35,550.64z"/>
	<path class="st0" d="M110.06,545.56c214.16-24.53,428.33-49.06,642.49-73.58c0.06,0.35,0.13,0.69,0.19,1.04
		c-11.05,2.76-22.09,5.54-33.15,8.28c-85.42,21.2-170.84,42.4-256.27,63.52c-3.67,0.91-7.54,1.4-11.31,1.4
		c-111.64,0.07-223.29,0.06-334.93,0.06c-2.32,0-4.64,0-6.97,0C110.1,546.04,110.08,545.8,110.06,545.56z"/>
	<path class="st0" d="M123.66,568.89c142.5,77.32,285,154.63,428.3,232.38c-2.34-10.12-4.46-19.28-6.86-29.63
		c27.29,13.26,53.66,26.07,80.72,39.21c-2.11,0.85-3.55,1.52-5.04,2.03c-25.83,8.79-51.68,17.52-77.48,26.4
		c-2.95,1.01-5.15,0.8-7.83-0.94c-136.34-88.73-272.74-177.39-409.13-266.06c-1.1-0.72-2.17-1.49-3.26-2.23
		C123.27,569.67,123.47,569.28,123.66,568.89z"/>
	<path class="st0" d="M168.8,499.49C349.27,392.71,529.73,285.93,710.2,179.15c0.18,0.24,0.35,0.48,0.53,0.72
		c-1.17,0.97-2.29,2-3.5,2.91c-62.04,46.39-124.08,92.77-186.16,139.1c-3.18,2.37-6.64,4.46-10.17,6.27
		c-106.93,54.89-213.86,109.77-320.87,164.5c-6.55,3.35-13.77,5.4-20.68,8.06C169.16,500.3,168.98,499.89,168.8,499.49z"/>
	<path class="st0" d="M754.34,802.74c8.95-13.97,17.44-27.3,26.08-40.53c0.82-1.25,2.5-2.21,3.98-2.71
		c79.37-27.03,158.77-54,238.17-80.96c0.59-0.2,1.26-0.18,2.23,0.48c-1.32,0.75-2.63,1.52-3.97,2.25
		c-79.41,42.83-158.83,85.64-238.19,128.57c-3.25,1.76-5.89,2.08-9.26,0.57C767.33,807.69,761.08,805.41,754.34,802.74z"/>
	<path class="st0" d="M1492.39,549.19c-137.39,20.15-274.78,40.29-412.17,60.44c-0.11-0.37-0.23-0.73-0.34-1.1
		c1.17-0.41,2.33-0.87,3.52-1.24c59.45-18.28,118.81-36.88,178.45-54.52c10.78-3.19,22.73-3.26,34.15-3.36
		c64.96-0.57,129.92-0.72,194.88-1c0.48,0,0.96,0.11,1.45,0.17C1492.33,548.79,1492.36,548.99,1492.39,549.19z"/>
	<path class="st0" d="M674.17,352.04c-19.57,6.45-39.13,12.9-58.7,19.36C440.41,429.19,265.36,486.99,90.28,544.72
		c-2.94,0.97-6.16,1.47-9.25,1.5c-16.66,0.14-33.33,0.07-49.99,0.07c-1.57,0-3.15,0-4.72,0c-0.04-0.31-0.08-0.62-0.11-0.93
		c215.81-64.77,431.62-129.54,647.43-194.3C673.81,351.38,673.99,351.71,674.17,352.04z"/>
	<path class="st0" d="M666.69,350.98c-112.56,33.78-225.12,67.56-337.68,101.34c-0.1-0.28-0.21-0.57-0.31-0.85
		c3.76-1.53,7.51-3.07,11.28-4.58c93.61-37.45,187.22-74.91,280.89-112.22c2.31-0.92,5.59-0.86,7.93,0.03
		c12.72,4.82,25.28,10.04,37.89,15.12C666.69,350.19,666.69,350.59,666.69,350.98z"/>
	<path class="st0" d="M150.87,580.19c1.46,0.64,2.94,1.22,4.37,1.92c127.68,62.06,255.34,124.14,383.06,186.13
		c3.18,1.54,4.84,3.51,5.53,6.89c1.46,7.12,3.21,14.18,5.04,22.14c-133.3-72.33-265.81-144.23-398.32-216.13
		C150.66,580.82,150.77,580.5,150.87,580.19z"/>
	<path class="st0" d="M1325.28,583.21c-105.54,36.05-211.07,72.09-316.61,108.14c-0.15-0.29-0.29-0.57-0.44-0.86
		c1.47-0.82,2.98-1.57,4.39-2.47c26.43-16.83,56.32-25.24,85.59-35.13c42.52-14.37,84.85-29.35,127.65-42.84
		c32.33-10.19,65.27-18.47,97.94-27.58c0.44-0.12,0.94-0.02,1.42-0.02C1325.24,582.7,1325.26,582.96,1325.28,583.21z"/>
	<path class="st0" d="M625.45,330.98c22.21-8.95,43.3-17.45,64.84-26.13c7.03,10.79,13.95,21.42,21.25,32.63
		c-13.26,4-25.92,7.84-38.6,11.6c-0.88,0.26-2.03,0.13-2.9-0.21C655.55,343.1,641.1,337.27,625.45,330.98z"/>
	<path class="st0" d="M713.9,341.07c7.24,11.16,14.24,21.93,21.23,32.7c-0.24,0.31-0.49,0.61-0.73,0.92
		c-17.93-7.18-35.86-14.36-55.13-22.08C691.42,348.56,702.41,344.9,713.9,341.07z"/>
	<path class="st0" d="M706.34,850.28c-4.77,4.53-8.83,4.03-13.93,1.37c-21.83-11.37-43.92-22.25-65.91-33.31
		c-1.61-0.81-3.2-1.69-5.33-2.82c4.07-2.29,7.29-3.53,11.69-1.34c22.78,11.33,45.72,22.33,68.59,33.47
		C703.06,848.42,704.59,849.33,706.34,850.28z"/>
	<path class="st0" d="M733.84,834.65c5.92-9.22,11.79-18.48,17.84-27.61c0.58-0.88,2.61-1.63,3.56-1.3
		c6.54,2.31,12.98,4.92,20.32,7.78c-14.19,7.65-27.53,14.85-40.88,22.05C734.41,835.27,734.12,834.96,733.84,834.65z"/>
	<path class="st0" d="M434.3,548.53c89.47,0,178.93,0,268.4,0c0,0.27,0,0.54,0,0.8c-89.47,0-178.93,0-268.4,0
		C434.3,549.06,434.3,548.8,434.3,548.53z"/>
	<path class="st0" d="M1349.92,573.06c-24.51,6.82-49.03,13.65-73.54,20.47c-0.11-0.39-0.22-0.77-0.32-1.16
		C1300.42,584.99,1323.62,573.47,1349.92,573.06z"/>
</g>
</svg>
